<?xml version="1.0" standalone="no"?>
<!DOCTYPE svg PUBLIC "-//W3C//DTD SVG 20010904//EN"
 "http://www.w3.org/TR/2001/REC-SVG-20010904/DTD/svg10.dtd">
<svg version="1.0" xmlns="http://www.w3.org/2000/svg"
 width="83.000000pt" height="81.000000pt" viewBox="0 0 83.000000 81.000000"
 preserveAspectRatio="xMidYMid meet">

<g transform="translate(0.000000,81.000000) scale(0.100000,-0.100000)"
fill="red" stroke="inherit">
<path d="M330 685 l-74 -75 35 0 c48 0 59 -15 59 -82 l0 -58 65 0 65 0 0 58
c0 67 11 82 59 82 l35 0 -74 75 c-41 41 -79 75 -85 75 -6 0 -44 -34 -85 -75z"/>
<path d="M113 468 c-40 -39 -73 -76 -73 -82 0 -15 138 -152 145 -144 3 3 4 71
3 151 l-3 146 -72 -71z"/>
<path d="M640 392 l0 -153 70 62 c38 34 72 69 75 78 4 10 -19 40 -70 90 l-75
76 0 -153z"/>
<path d="M348 243 l-3 -68 -35 -3 c-19 -2 -38 -7 -43 -11 -4 -4 27 -40 68 -81
l76 -73 74 73 c41 41 71 77 67 81 -4 4 -20 9 -37 11 -30 3 -30 4 -33 71 l-3
67 -64 0 -64 0 -3 -67z"/>
</g>
</svg>
