<?xml version="1.0" standalone="no"?>
<!DOCTYPE svg PUBLIC "-//W3C//DTD SVG 20010904//EN"
 "http://www.w3.org/TR/2001/REC-SVG-20010904/DTD/svg10.dtd">
<svg version="1.0" xmlns="http://www.w3.org/2000/svg"
 width="550.000000pt" height="514.000000pt" viewBox="0 0 550.000000 514.000000"
 preserveAspectRatio="xMidYMid meet">

<g transform="translate(0.000000,514.000000) scale(0.100000,-0.100000)"
fill="currentColor" stroke="currentColor">
<path d="M2755 5049 c-12 -50 -9 -2128 3 -2164 l9 -30 9 40 c14 62 12 2146 -2
2169 -11 18 -12 16 -19 -15z"/>
<path d="M908 4080 c-445 -37 -787 -272 -874 -601 -22 -83 -22 -243 0 -329 23
-91 73 -186 127 -242 l45 -48 185 1 c101 1 195 4 209 8 24 7 23 8 -25 35 -99
56 -156 99 -219 167 -99 104 -126 172 -126 314 0 164 54 288 180 416 71 71
102 94 186 137 199 101 430 135 674 97 267 -40 461 -173 609 -417 21 -35 42
-63 47 -63 15 0 24 113 22 260 l-3 140 -69 22 c-88 29 -269 69 -393 88 -118
18 -441 27 -575 15z"/>
<path d="M4115 4061 c-170 -37 -337 -107 -447 -189 -126 -93 -231 -241 -274
-387 -21 -73 -24 -254 -4 -335 19 -81 69 -177 121 -234 l47 -51 142 -3 c144
-4 270 4 270 16 0 4 -40 30 -88 57 -165 95 -269 228 -292 375 -12 82 -5 155
27 253 76 236 319 420 626 473 68 12 130 15 237 11 176 -6 264 -27 405 -96
130 -64 244 -168 329 -300 33 -50 65 -91 73 -91 10 0 13 40 13 199 l0 198
-107 32 c-248 72 -415 91 -763 90 -184 0 -252 -4 -315 -18z"/>
<path d="M1858 2634 c-10 -9 -11 -259 -2 -303 10 -48 29 -31 32 28 l3 53 56
-4 c52 -5 58 -8 103 -59 57 -64 76 -59 32 7 l-30 47 34 50 c19 27 34 57 34 66
0 23 -35 77 -62 95 -26 17 -188 33 -200 20z m172 -47 c33 -16 55 -57 46 -90
-9 -37 -53 -57 -126 -57 l-60 0 0 86 0 86 58 -7 c31 -4 68 -12 82 -18z"/>
<path d="M4464 2625 c-10 -25 5 -308 16 -319 15 -15 22 -1 28 55 l5 51 50 -5
c46 -4 55 -9 96 -56 26 -28 49 -51 54 -51 14 0 7 22 -23 64 l-29 44 20 18 c25
23 49 67 49 89 0 34 -32 84 -63 98 -18 8 -69 18 -114 22 -73 6 -84 5 -89 -10z
m168 -31 c35 -7 58 -39 58 -81 0 -52 -18 -63 -132 -78 l-48 -6 0 91 0 91 48
-6 c26 -3 59 -9 74 -11z"/>
<path d="M5013 2633 l-43 -4 0 -159 c0 -135 2 -159 16 -164 24 -9 187 -7 202
3 19 12 -34 21 -119 21 l-69 0 0 49 c0 68 15 81 95 81 65 0 93 13 52 24 -12 3
-50 6 -84 6 l-63 0 0 60 0 60 95 0 c57 0 95 4 95 10 0 6 -21 10 -47 10 -27 0
-57 2 -68 4 -11 1 -39 1 -62 -1z"/>
<path d="M333 2611 c-38 -24 -52 -71 -30 -104 8 -13 48 -35 93 -53 l79 -30 0
-39 c0 -54 -31 -66 -116 -44 -33 9 -62 13 -64 9 -7 -11 10 -29 38 -39 70 -27
181 5 193 54 11 43 -10 71 -73 100 -107 49 -108 50 -111 78 -6 50 13 60 95 53
44 -3 73 -2 73 4 0 34 -126 41 -177 11z"/>
<path d="M766 2614 c-10 -25 -7 -288 4 -304 16 -26 25 0 28 88 5 147 6 147 63
51 77 -128 68 -127 137 -10 l59 102 5 -111 c6 -110 19 -154 35 -114 11 26 10
300 -1 311 -10 9 -21 -6 -96 -130 -31 -50 -60 -92 -66 -94 -5 -2 -27 27 -48
64 -53 93 -99 163 -107 163 -4 0 -10 -7 -13 -16z"/>
<path d="M1441 2583 c-30 -62 -121 -270 -121 -277 0 -3 7 -6 16 -6 8 0 24 19
35 45 l20 45 92 0 93 0 19 -42 c23 -49 52 -66 41 -24 -3 14 -35 88 -69 164
-74 161 -88 172 -126 95z m95 -155 c-11 -3 -42 -6 -68 -7 -59 -1 -60 8 -17 99
l31 65 38 -75 c37 -74 38 -75 16 -82z"/>
<path d="M2310 2620 c0 -5 22 -10 49 -10 l49 0 3 -149 c2 -82 7 -152 11 -156
21 -22 28 16 28 156 l0 149 61 0 c37 0 58 4 54 10 -4 6 -58 10 -131 10 -76 0
-124 -4 -124 -10z"/>
<path d="M3065 2599 c-62 -55 -36 -111 68 -145 100 -33 121 -64 71 -103 -32
-25 -66 -26 -124 -6 -46 16 -56 14 -47 -9 13 -32 124 -46 181 -22 41 17 48 28
48 74 0 47 -32 75 -104 92 -84 20 -106 50 -71 99 15 22 20 23 90 17 40 -3 73
-2 73 3 0 15 -51 31 -100 31 -41 0 -55 -5 -85 -31z"/>
<path d="M3445 2620 c-4 -6 17 -10 54 -10 l61 0 0 -142 c0 -134 8 -183 27
-164 4 4 9 75 11 157 l3 149 55 0 c30 0 54 5 54 10 0 6 -50 10 -129 10 -76 0
-132 -4 -136 -10z"/>
<path d="M3980 2611 c-86 -45 -112 -161 -55 -248 35 -53 153 -80 214 -49 15 8
42 31 60 51 28 32 31 42 31 98 0 78 -22 116 -82 146 -55 26 -122 27 -168 2z
m156 -30 c87 -53 82 -191 -9 -234 -43 -21 -77 -21 -123 -2 -63 26 -90 127 -52
198 28 53 126 73 184 38z"/>
<path d="M1820 2033 c0 -5 9 -21 21 -38 150 -220 135 -470 -41 -688 -94 -117
-248 -216 -400 -256 -223 -59 -501 -26 -722 85 -207 104 -431 306 -578 521
-25 36 -49 65 -55 65 -12 -2 -22 -131 -24 -289 l-1 -112 122 -77 c216 -137
428 -224 631 -261 124 -22 360 -21 491 2 449 78 794 366 847 706 12 79 7 211
-11 297 l-12 52 -134 0 c-74 0 -134 -3 -134 -7z"/>
<path d="M5180 2031 c0 -6 14 -31 32 -57 78 -115 110 -304 73 -430 -49 -170
-185 -331 -352 -417 -116 -60 -158 -75 -258 -93 -95 -17 -170 -18 -285 -4
-336 41 -626 231 -909 593 -42 53 -81 97 -87 97 -18 0 -24 -61 -24 -233 l0
-157 93 -61 c98 -65 298 -168 412 -214 346 -137 799 -114 1129 58 331 172 507
468 468 785 -20 157 -3 142 -158 142 -78 0 -134 -4 -134 -9z"/>
<path d="M2757 1994 c-11 -78 -29 -1689 -20 -1821 9 -129 15 -155 31 -139 11
11 15 1963 4 1983 -7 12 -11 7 -15 -23z"/>
</g>
</svg>
